<mxfile host="app.diagrams.net" agent="Mozilla/5.0 (Windows NT 10.0; Win64; x64) AppleWebKit/537.36 (KHTML, like Gecko) Chrome/129.0.0.0 Safari/537.36" version="24.7.6">
  <diagram name="PÃ¡gina-1" id="G-hGq_ztjGl3dNJSmtvX">
    <mxGraphModel dx="1434" dy="780" grid="1" gridSize="10" guides="1" tooltips="1" connect="1" arrows="1" fold="1" page="1" pageScale="1" pageWidth="827" pageHeight="1169" math="0" shadow="0">
      <root>
        <mxCell id="0" />
        <mxCell id="1" parent="0" />
        <mxCell id="8W_lVHp0BI4hJ7Dho9j5-1" value="Contato" style="swimlane;fontStyle=1;align=center;verticalAlign=top;childLayout=stackLayout;horizontal=1;startSize=26;horizontalStack=0;resizeParent=1;resizeParentMax=0;resizeLast=0;collapsible=1;marginBottom=0;whiteSpace=wrap;html=1;" vertex="1" parent="1">
          <mxGeometry x="280" y="110" width="470" height="170" as="geometry" />
        </mxCell>
        <mxCell id="8W_lVHp0BI4hJ7Dho9j5-2" value="- id : int&amp;nbsp;&lt;div&gt;- nome: String&lt;/div&gt;&lt;div&gt;- email: String&lt;/div&gt;&lt;div&gt;- senha: String&amp;nbsp;&lt;/div&gt;" style="text;strokeColor=none;fillColor=none;align=left;verticalAlign=top;spacingLeft=4;spacingRight=4;overflow=hidden;rotatable=0;points=[[0,0.5],[1,0.5]];portConstraint=eastwest;whiteSpace=wrap;html=1;" vertex="1" parent="8W_lVHp0BI4hJ7Dho9j5-1">
          <mxGeometry y="26" width="470" height="74" as="geometry" />
        </mxCell>
        <mxCell id="8W_lVHp0BI4hJ7Dho9j5-3" value="" style="line;strokeWidth=1;fillColor=none;align=left;verticalAlign=middle;spacingTop=-1;spacingLeft=3;spacingRight=3;rotatable=0;labelPosition=right;points=[];portConstraint=eastwest;strokeColor=inherit;" vertex="1" parent="8W_lVHp0BI4hJ7Dho9j5-1">
          <mxGeometry y="100" width="470" height="8" as="geometry" />
        </mxCell>
        <mxCell id="8W_lVHp0BI4hJ7Dho9j5-4" value="+ InsertUser(nome, email, senha): boolean&lt;div&gt;+ CheckUser(email):boolean&lt;/div&gt;&lt;div&gt;+CHeckUserPass(email, senha):boolean&amp;nbsp;&lt;/div&gt;&lt;div&gt;&lt;div&gt;&lt;br&gt;&lt;/div&gt;&lt;/div&gt;" style="text;strokeColor=none;fillColor=none;align=left;verticalAlign=top;spacingLeft=4;spacingRight=4;overflow=hidden;rotatable=0;points=[[0,0.5],[1,0.5]];portConstraint=eastwest;whiteSpace=wrap;html=1;" vertex="1" parent="8W_lVHp0BI4hJ7Dho9j5-1">
          <mxGeometry y="108" width="470" height="62" as="geometry" />
        </mxCell>
      </root>
    </mxGraphModel>
  </diagram>
</mxfile>
